<?xml version="1.0" standalone="no"?>
<!DOCTYPE svg PUBLIC "-//W3C//DTD SVG 20010904//EN"
 "http://www.w3.org/TR/2001/REC-SVG-20010904/DTD/svg10.dtd">
<svg version="1.0" xmlns="http://www.w3.org/2000/svg"
 width="1914.000000pt" height="902.000000pt" viewBox="0 0 1914.000000 902.000000"
 preserveAspectRatio="xMidYMid meet">

<g transform="translate(0.000000,902.000000) scale(0.100000,-0.100000)"
fill="#ffffff" stroke="none">
<path d="M3895 8490 c-27 -4 -84 -9 -125 -10 -41 0 -95 -5 -120 -11 -25 -5
-81 -16 -125 -24 -127 -23 -188 -36 -220 -47 -16 -5 -50 -14 -75 -19 -25 -5
-54 -13 -65 -18 -11 -6 -36 -14 -55 -20 -129 -35 -394 -146 -535 -223 -11 -6
-27 -15 -35 -19 -49 -26 -242 -144 -280 -172 -97 -69 -251 -188 -302 -234
-120 -106 -331 -326 -411 -428 -22 -27 -154 -205 -165 -221 -38 -57 -79 -122
-90 -144 -7 -14 -22 -41 -33 -60 -39 -64 -121 -224 -145 -285 -14 -33 -31 -73
-39 -90 -7 -16 -21 -50 -30 -75 -9 -25 -23 -59 -30 -75 -7 -17 -16 -46 -20
-65 -4 -19 -11 -40 -16 -46 -5 -6 -13 -31 -18 -55 -5 -24 -14 -57 -19 -74 -15
-44 -33 -120 -47 -200 -7 -38 -18 -95 -24 -125 -34 -176 -56 -570 -35 -624 5
-14 44 -16 329 -16 l323 0 6 23 c10 36 7 147 -4 168 -10 18 -23 19 -199 19
-171 0 -189 2 -193 18 -6 25 7 214 21 307 28 181 80 399 132 545 50 142 83
220 151 358 36 72 43 82 62 76 25 -7 274 -151 299 -172 16 -14 20 -13 42 8 14
13 25 28 25 33 0 5 13 32 30 58 16 27 27 54 25 61 -6 14 -147 98 -165 98 -5 0
-10 4 -10 9 0 5 -12 14 -27 20 -34 14 -59 29 -98 58 l-30 22 24 42 c13 24 28
48 32 53 5 6 57 74 116 151 104 136 290 332 423 447 66 57 247 198 255 198 2
0 24 14 48 30 25 17 51 30 59 30 7 0 29 -28 48 -62 19 -35 39 -70 45 -79 5
-10 23 -41 38 -70 16 -30 34 -61 41 -69 7 -8 16 -23 19 -32 9 -25 21 -23 85
15 31 18 65 36 75 40 9 3 17 14 17 23 0 13 -41 93 -87 169 -7 11 -17 32 -24
48 -6 15 -15 27 -19 27 -5 0 -12 10 -16 23 -3 12 -13 30 -21 39 -32 36 1 60
207 150 25 10 59 26 75 33 17 8 43 17 59 21 16 4 41 13 55 20 14 8 34 14 44
14 10 0 27 5 38 11 31 16 191 60 294 80 28 6 79 16 115 24 36 8 103 17 150 20
47 3 118 11 159 17 103 17 101 21 101 -209 l0 -184 98 3 97 3 3 188 2 188 25
11 c19 8 42 8 92 0 38 -6 106 -14 153 -18 47 -3 108 -12 137 -20 28 -8 62 -14
75 -14 28 1 196 -39 221 -52 10 -5 37 -13 60 -18 41 -8 113 -32 152 -50 11 -5
31 -12 45 -15 14 -4 40 -13 58 -21 17 -8 47 -20 65 -27 28 -12 168 -77 207
-97 21 -11 16 -64 -9 -96 -12 -15 -21 -33 -21 -40 0 -8 -4 -14 -9 -14 -5 0
-14 -12 -20 -27 -6 -16 -19 -40 -29 -55 -88 -135 -88 -141 18 -188 14 -6 32
-18 42 -26 20 -19 54 -5 69 29 5 12 20 40 34 62 13 22 27 47 31 55 23 46 79
138 96 157 l20 21 67 -47 c36 -26 91 -64 121 -85 30 -21 60 -43 65 -50 6 -6
42 -36 80 -67 73 -59 210 -191 307 -297 71 -77 233 -288 277 -361 30 -50 31
-54 14 -67 -18 -14 -153 -95 -208 -124 -110 -60 -121 -75 -87 -121 28 -39 42
-62 53 -90 14 -36 24 -33 201 72 145 86 150 88 174 73 13 -9 24 -21 24 -28 0
-6 16 -45 36 -86 44 -89 55 -116 84 -195 12 -33 29 -72 36 -87 8 -14 14 -36
14 -48 0 -12 6 -34 14 -48 18 -35 49 -155 76 -292 6 -30 18 -86 26 -125 8 -38
14 -90 14 -115 1 -25 7 -89 14 -143 18 -142 27 -136 -199 -139 l-180 -3 0 -95
0 -95 317 -3 317 -2 12 22 c8 14 9 44 5 87 -4 36 -11 143 -16 236 -5 94 -13
193 -19 220 -6 28 -15 79 -21 115 -21 135 -37 202 -79 345 -12 39 -21 77 -21
86 0 8 -4 19 -9 25 -5 5 -14 25 -19 44 -6 19 -18 55 -27 80 -15 41 -22 59 -60
145 -23 53 -156 319 -178 357 -51 85 -81 133 -86 138 -9 8 -51 69 -51 74 0 9
-175 235 -233 300 -109 126 -259 269 -387 371 -41 33 -79 66 -83 72 -4 7 -12
13 -18 13 -5 0 -38 23 -73 50 -35 28 -66 50 -70 50 -3 0 -29 16 -56 35 -27 19
-52 35 -54 35 -2 0 -27 15 -55 33 -49 33 -267 144 -361 185 -25 11 -61 27 -82
36 -20 9 -42 16 -50 16 -7 0 -22 7 -32 15 -11 8 -28 15 -38 15 -9 0 -32 6 -50
14 -79 35 -357 106 -473 122 -27 4 -61 11 -75 16 -59 23 -626 45 -725 28z"/>
<path d="M5277 7328 c-28 -36 -138 -180 -192 -253 -8 -11 -24 -31 -34 -45 -11
-14 -71 -95 -135 -180 -64 -85 -121 -163 -128 -172 -7 -9 -20 -26 -28 -38 -8
-12 -54 -73 -102 -136 -48 -63 -116 -153 -151 -201 -35 -49 -110 -150 -168
-225 -57 -75 -129 -171 -158 -213 -78 -108 -96 -121 -161 -128 -49 -5 -108
-23 -150 -48 -8 -5 -25 -13 -37 -19 -29 -12 -152 -129 -164 -155 -5 -11 -13
-27 -18 -35 -38 -61 -71 -183 -71 -266 0 -45 27 -184 39 -199 5 -5 12 -21 16
-35 11 -36 88 -133 138 -174 118 -96 279 -137 437 -112 52 9 148 44 171 63 8
7 20 13 26 13 18 0 117 103 154 160 57 88 79 169 79 288 0 79 -5 116 -22 164
-25 74 -25 106 3 168 12 25 28 61 36 80 8 19 21 49 28 65 8 17 21 48 31 70 9
22 24 58 34 80 10 22 27 65 39 95 12 30 28 69 36 85 44 96 75 166 75 171 0 4
10 28 21 53 12 25 28 61 35 79 8 17 20 47 28 65 8 17 22 50 32 72 25 60 54
126 68 160 7 17 24 55 36 85 13 30 31 73 40 95 10 22 25 58 34 80 10 22 24 55
32 73 8 17 20 47 27 65 8 17 21 48 30 67 9 19 28 64 43 100 14 36 30 70 35 76
12 14 15 77 5 92 -16 26 -55 12 -89 -30z"/>
</g>
</svg>
