<?xml version="1.0" standalone="no"?>
<!DOCTYPE svg PUBLIC "-//W3C//DTD SVG 20010904//EN"
 "http://www.w3.org/TR/2001/REC-SVG-20010904/DTD/svg10.dtd">
<svg version="1.0" xmlns="http://www.w3.org/2000/svg"
 width="920.000000pt" height="980.000000pt" viewBox="0 0 920.000000 980.000000"
 preserveAspectRatio="xMidYMid meet">

<g transform="translate(0.000000,980.000000) scale(0.100000,-0.100000)"
fill="#ffffff" stroke="none">
<path d="M1947 9790 c-284 -45 -638 -219 -947 -466 -109 -87 -308 -286 -390
-389 -262 -331 -430 -714 -495 -1130 -23 -145 -31 -542 -16 -747 70 -908 342
-1868 795 -2804 182 -373 393 -741 651 -1129 679 -1021 1396 -1765 2271 -2358
666 -451 1154 -666 1689 -743 145 -21 515 -24 645 -5 242 35 506 114 715 215
256 123 447 258 630 447 410 422 435 779 86 1220 -184 231 -569 579 -950 859
-304 222 -499 338 -617 366 -108 25 -254 15 -374 -25 -265 -90 -507 -290 -847
-701 -89 -108 -138 -140 -215 -140 -27 0 -64 6 -83 14 -68 29 -453 415 -728
731 -622 714 -1170 1567 -1556 2425 -164 364 -341 836 -341 911 0 76 48 152
120 189 19 10 179 77 355 150 451 186 608 269 736 387 78 73 133 157 166 256
24 74 27 96 26 222 0 119 -5 163 -33 295 -148 703 -385 1408 -554 1644 -100
141 -256 251 -411 291 -74 19 -249 27 -328 15z"/>
<path d="M5397 9620 c-131 -23 -254 -116 -312 -234 -91 -184 -62 -371 79 -511
77 -77 121 -97 319 -146 447 -111 803 -265 1157 -502 814 -545 1377 -1413
1539 -2374 37 -219 46 -333 45 -598 -1 -271 -13 -420 -55 -640 -42 -221 -12
-354 108 -473 192 -191 501 -168 663 47 53 70 76 137 104 304 52 299 61 411
61 762 0 356 -7 456 -55 743 -201 1197 -903 2285 -1911 2959 -428 286 -915
501 -1414 623 -177 43 -256 53 -328 40z"/>
<path d="M4906 8239 c-111 -26 -234 -126 -286 -233 -82 -169 -54 -355 75 -494
72 -78 126 -105 301 -151 209 -55 306 -91 480 -176 717 -350 1200 -1056 1274
-1860 19 -206 11 -365 -31 -619 -26 -156 -19 -222 35 -332 61 -122 180 -209
324 -236 120 -22 274 26 372 118 100 93 141 221 176 549 22 202 15 592 -14
780 -106 681 -405 1280 -881 1769 -374 382 -824 658 -1327 811 -253 77 -394
98 -498 74z"/>
<path d="M4483 6860 c-130 -19 -259 -114 -318 -233 -66 -133 -68 -261 -7 -391
62 -131 161 -205 336 -252 302 -80 524 -252 665 -515 107 -198 142 -413 105
-643 -19 -119 -14 -208 15 -286 41 -108 139 -207 251 -252 79 -32 241 -32 322
0 110 44 208 142 247 247 50 134 76 459 52 661 -66 558 -358 1048 -816 1367
-267 185 -667 325 -852 297z"/>
</g>
</svg>
