<?xml version="1.0" standalone="no"?>
<!DOCTYPE svg PUBLIC "-//W3C//DTD SVG 20010904//EN"
 "http://www.w3.org/TR/2001/REC-SVG-20010904/DTD/svg10.dtd">
<svg version="1.0" xmlns="http://www.w3.org/2000/svg"
 width="200.000000pt" height="200.000000pt" viewBox="0 0 200.000000 200.000000"
 preserveAspectRatio="xMidYMid meet">

<g transform="translate(0.000000,200.000000) scale(0.100000,-0.100000)"
fill="#ffffff" stroke="none">
<path d="M840 1703 c-163 -29 -328 -113 -451 -230 -55 -52 -116 -130 -108
-137 10 -7 339 -215 358 -225 17 -10 26 -5 66 34 52 50 149 101 213 111 l42 7
0 228 c0 212 -1 229 -17 228 -10 0 -56 -8 -103 -16z"/>
<path d="M1040 1492 l0 -229 42 -7 c64 -10 161 -61 213 -111 41 -40 48 -44 68
-33 17 9 340 213 356 225 8 6 -53 84 -107 135 -145 138 -304 211 -524 243
l-48 6 0 -229z"/>
<path d="M1585 1164 c-99 -64 -186 -119 -192 -123 -10 -5 -8 -20 8 -66 30 -83
29 -199 -1 -278 -12 -33 -18 -62 -14 -67 17 -16 376 -242 379 -238 10 12 56
113 73 165 33 96 45 195 39 328 -6 135 -29 230 -80 330 l-32 64 -180 -115z"/>
<path d="M205 1221 c-13 -28 -37 -89 -52 -138 -24 -79 -27 -104 -27 -243 -1
-133 2 -166 22 -233 28 -98 77 -207 93 -207 9 0 202 120 371 231 5 3 -1 30
-13 60 -31 75 -32 212 -2 287 l21 52 -26 19 c-52 36 -349 221 -355 221 -4 0
-18 -22 -32 -49z"/>
<path d="M876 934 c-70 -142 -131 -279 -136 -304 -17 -89 12 -170 87 -242 52
-50 99 -68 180 -68 80 0 131 21 184 72 57 57 74 101 74 195 l0 81 -131 263
-130 262 -128 -259z m202 -296 c24 -20 43 -75 36 -106 -10 -39 -52 -81 -92
-88 -74 -14 -142 54 -128 128 15 81 120 118 184 66z"/>
</g>
</svg>
