<svg width="496" height="496" xmlns="http://www.w3.org/2000/svg"><path d="M248 32c118.621 0 216 96.075 216 216 0 119.291-96.61 216-216 216-119.244 0-216-96.562-216-216 0-119.203 96.602-216 216-216m0-32C111.043 0 0 111.083 0 248c0 136.997 111.043 248 248 248s248-111.003 248-248C496 111.083 384.957 0 248 0zm-36 344h12V224h-12c-6.627 0-12-5.373-12-12v-8c0-6.627 5.373-12 12-12h48c6.627 0 12 5.373 12 12v140h12c6.627 0 12 5.373 12 12v8c0 6.627-5.373 12-12 12h-72c-6.627 0-12-5.373-12-12v-8c0-6.627 5.373-12 12-12zm36-240c-17.673 0-32 14.327-32 32 0 17.673 14.327 32 32 32 17.673 0 32-14.327 32-32 0-17.673-14.327-32-32-32z" fill="#3DADC5" fill-rule="nonzero"/></svg>