<?xml version="1.0" encoding="UTF-8"?>
<svg width="64px" height="64px" viewBox="0 0 64 64" version="1.1" xmlns="http://www.w3.org/2000/svg" xmlns:xlink="http://www.w3.org/1999/xlink">
    <!-- Generator: Sketch 59.1 (86144) - https://sketch.com -->
    <title>NFC_revenue</title>
    <desc>Created with Sketch.</desc>
    <g id="Page-1" stroke="none" stroke-width="1" fill="none" fill-rule="evenodd">
        <g id="NFC_revenue" fill="#56D9FE" fill-rule="nonzero">
            <polygon id="Path_395" points="32 46.1 18 38.8 11.4 38.8 31.8 49 32 49 52.5 38.8 46 38.8"></polygon>
            <path d="M32,34.5 L52.1,24.5 L32.1,14.5 L32,14.4 L11.9,24.4 L31.8,34.4 L32,34.5 Z M17.9,24.2 L31.9,17.5 L45.9,24.2 L31.9,31.5 L17.9,24.2 Z" id="Path_396"></path>
            <polygon id="Path_397" points="32 41.8 52.5 31.5 46 31.5 32 38.8 18 31.5 11.4 31.5 31.8 41.7"></polygon>
            <path d="M31.8,63.7 C14.3,63.7 0,49.4 0,31.8 C0,14.2 14.3,0 31.8,0 C49.3,0 63.6,14.3 63.6,31.8 C63.6,49.3 49.4,63.7 31.8,63.7 Z M31.8,4 C16.5,4 4,16.5 4,31.8 C4,47.2 16.5,59.6 31.8,59.6 C47.1,59.6 59.6,47.1 59.6,31.8 C59.7,16.5 47.2,4 31.8,4 Z" id="Shape"></path>
        </g>
    </g>
</svg>