<?xml version="1.0" encoding="utf-8"?>
<!-- Generator: Adobe Illustrator 23.1.1, SVG Export Plug-In . SVG Version: 6.00 Build 0)  -->
<svg version="1.1" id="Layer_1" xmlns="http://www.w3.org/2000/svg" xmlns:xlink="http://www.w3.org/1999/xlink" x="0px" y="0px"
	 viewBox="0 0 38 44" style="enable-background:new 0 0 38 44;" xml:space="preserve">
<g id="Group_580" transform="translate(72 -1804)">
	<path id="ic_content_copy_24px" fill="#FFFFFF" d="M-44,1804h-24c-2.2,0-4,1.8-4,4v28h4v-28h24V1804z M-38,1812h-22c-2.2,0-4,1.8-4,4v28
		c0,2.2,1.8,4,4,4h22c2.2,0,4-1.8,4-4v-28C-34,1813.8-35.8,1812-38,1812z M-38,1844h-22v-28h22V1844z"/>
	<g id="outline-attach_money-24px"  transform="translate(-61.205 1817.017)">
		<path id="Path_165" fill="#FFFFFF" d="M12.5,11.6c-2.4-0.6-3.2-1.3-3.2-2.3c0-1.2,1.1-2,2.9-2c1.9,0,2.6,0.9,2.7,2.2h2.3c0-2-1.5-3.7-3.4-4V3.2
			h-3.2v2.3c-2,0.4-3.7,1.8-3.7,3.8c0,2.5,2,3.7,5,4.4c2.7,0.6,3.2,1.6,3.2,2.6c0,0.7-0.5,1.9-2.9,1.9c-2.2,0-3-1-3.2-2.2H6.7
			c0.1,2.3,1.9,3.6,3.9,4.1v2.3h3.2V20c2.1-0.4,3.7-1.6,3.7-3.8C17.5,13.2,14.9,12.2,12.5,11.6z"/>
	</g>
</g>
</svg>
