<?xml version="1.0" encoding="utf-8"?>
<!-- Generator: Adobe Illustrator 23.1.1, SVG Export Plug-In . SVG Version: 6.00 Build 0)  -->
<svg version="1.1" id="Layer_1" xmlns="http://www.w3.org/2000/svg" xmlns:xlink="http://www.w3.org/1999/xlink" x="0px" y="0px"
	 viewBox="0 0 99.9 70.6" style="enable-background:new 0 0 99.9 70.6;" xml:space="preserve">
<path id="ic_network_check_24px" d="M67.7,2.5c-0.8,0-1.5,0.4-1.9,1l-0.3,0.7L42,57.1c-0.8,1.3-1.2,2.8-1.2,4.4c0,5,4.1,9.1,9.1,9.1
	c4.3,0,8-3,8.9-7.2l0-0.1L69.9,4.7C70,3.5,69,2.5,67.7,2.5C67.7,2.5,67.7,2.5,67.7,2.5z M0,20.6l9.1,9.1
	c12.5-12.6,30.2-18.6,47.8-16.4l5.4-12.2C39.6-3,16.3,4.3,0,20.6z M90.8,29.7l9.1-9.1C92.7,13.4,84.1,7.9,74.5,4.4l-2.4,12.8
	C79.1,20.1,85.5,24.4,90.8,29.7z M72.7,47.9l9.1-9.1c-3.5-3.5-7.6-6.4-12.1-8.6l-2.5,13.3C69.2,44.7,71,46.2,72.7,47.9z M18.2,38.8
	l9.1,9.1c5-4.9,11.4-8.1,18.3-9.1l5.8-13.1C39,25.3,27,30,18.2,38.8L18.2,38.8z"/>
</svg>
