<?xml version="1.0" encoding="utf-8"?>
<!-- Generator: Adobe Illustrator 23.1.1, SVG Export Plug-In . SVG Version: 6.00 Build 0)  -->
<svg version="1.1" id="Layer_1" xmlns="http://www.w3.org/2000/svg" xmlns:xlink="http://www.w3.org/1999/xlink" x="0px" y="0px"
	 viewBox="0 0 32.8 32.8" style="enable-background:new 0 0 32.8 32.8;" xml:space="preserve">
<path id="BRA_DT_search" fill="#FFFFFF" d="M1.1,8.9C1,9.2,1,9.4,0.9,9.6c-0.3,1.1-0.5,2.3-0.6,3.4l0,0.2v0.9l0.1,0.8c0,0.1,0,0.3,0,0.4l0,0.2
	L0,15.6l0.4-0.1l0,0.1c0.3,1.9,1,3.8,2.1,5.4c2,3,5,5.1,8.6,5.8c1.1,0.2,2.2,0.3,3.3,0.3c2.4-0.1,4.7-0.8,6.8-2.1l0.3-0.2l0.3,0.2
	c0.1,0,0.1,0.1,0.2,0.1l2.4,2.4c1.4,1.4,2.8,2.9,4.3,4.3c0.4,0.5,1,0.8,1.6,0.9l0.1,0h0.4l0.3-0.1c1-0.2,1.8-1,2-2.1
	c0-0.1,0-0.1,0-0.2v-0.4l0-0.1c0-0.1,0-0.2-0.1-0.3l0,0c-0.1-0.5-0.4-0.9-0.7-1.2l-6.5-6.4l-0.3-0.3L25,21.5l0.2-0.3
	c4.2-6.2,2.5-14.7-3.7-18.9C19.2,0.8,16.6,0,13.9,0c-0.8,0-1.7,0.1-2.5,0.3c-2,0.3-3.9,1.2-5.6,2.4L5.4,3C5,3.3,4.6,3.7,4.3,4
	L4.2,4.1L4,4.3L3.8,4.5C2.6,5.8,1.7,7.3,1.1,8.9z M10,4.6c5-2.1,10.7,0.2,12.8,5.2c0.3,0.7,0.5,1.4,0.6,2.1c0.1,0.4,0.1,0.8,0.1,1.1
	c0,0.2,0,0.3,0.1,0.5c0,4.6-3.2,8.6-7.7,9.6c-0.7,0.2-1.4,0.2-2.1,0.2c-5.4,0-9.8-4.5-9.7-9.9C4.1,9.6,6.4,6.1,10,4.6z"/>
</svg>
