<svg xmlns="http://www.w3.org/2000/svg" width="60" height="59.968"><path data-name="Path 1" d="M56.599 35.743a4.895 4.895 0 00-3.782.023 5.065 5.065 0 00-2.139 1.711l-12.135-4.953a10.013 10.013 0 00.427-1.8l5.043-.113a5.226 5.226 0 00.428 1.216 4.944 4.944 0 004.435 2.746 4.876 4.876 0 002.207-.518 4.957 4.957 0 002.234-6.642 4.792 4.792 0 00-2.864-2.479 4.953 4.953 0 00-6.484 4.12l-4.93.112a11.027 11.027 0 00-.27-1.688l11.954-4.728a4.909 4.909 0 002.364 2.164 4.946 4.946 0 10-2.57-6.506 4.711 4.711 0 00-.316 2.882l-11.973 4.727a10.141 10.141 0 00-.855-1.441l3.58-3.422a4.957 4.957 0 001.125.608 5.013 5.013 0 001.8.338 4.949 4.949 0 10-4.525-2.949 5.549 5.549 0 00.5.878l-3.516 3.355a8.435 8.435 0 00-1.891-1.329l5.133-11.821a4.716 4.716 0 001.374.2 5.223 5.223 0 001.824-.338 4.889 4.889 0 002.724-2.634 5 5 0 00.066-3.778A5.091 5.091 0 0039.038.87a4.932 4.932 0 00-.991 8.664l-5.155 11.89a9.424 9.424 0 00-1.576-.338l.068-4.975a4.765 4.765 0 001.216-.382 4.967 4.967 0 002.589-2.769 4.9 4.9 0 00-.135-3.782 4.951 4.951 0 00-9.141.315 4.9 4.9 0 00.135 3.782 4.949 4.949 0 003.76 2.837l-.068 4.931a8.181 8.181 0 00-2.184.45L22.717 9.29a5.025 5.025 0 002.16-2.364 4.961 4.961 0 10-9.163-.18 4.889 4.889 0 002.634 2.724 5.008 5.008 0 001.959.405 3.944 3.944 0 00.9-.09l4.863 12.337a7.949 7.949 0 00-1.238.833l-3.6-3.692a4.941 4.941 0 00-6.079-7.362 4.951 4.951 0 00.36 9.163 5.13 5.13 0 001.733.315 4.857 4.857 0 002.927-.968l3.58 3.67a9.59 9.59 0 00-1.236 1.914L9.996 20.907a4.955 4.955 0 00-6.709-5.831A4.961 4.961 0 00.653 21.56a4.957 4.957 0 004.571 3.039 5.273 5.273 0 001.913-.383 5.023 5.023 0 002.229-1.846l12.607 5.133a9.262 9.262 0 00-.27 1.576l-5 .113a5.184 5.184 0 00-.45-1.373 4.951 4.951 0 00-6.636-2.229 4.791 4.791 0 00-2.48 2.859 4.912 4.912 0 00.27 3.785 4.792 4.792 0 002.859 2.477 4.707 4.707 0 001.576.247 5.038 5.038 0 002.206-.518 4.9 4.9 0 002.679-3.692l5.021-.113a9.263 9.263 0 00.36 1.711L9.343 37.364a4.935 4.935 0 00-2.431-2.3 5.005 5.005 0 00-3.782-.068 4.892 4.892 0 00-2.725 2.638 5.006 5.006 0 00-.067 3.782 4.89 4.89 0 002.634 2.724 4.958 4.958 0 006.867-5.29l12.878-5.088a7.324 7.324 0 00.72 1.126l-3.94 3.759a4.957 4.957 0 10-4.68 8.645 4.949 4.949 0 005.808-7.5l3.892-3.689a8.541 8.541 0 001.576 1.148l-5.448 12.563a4.954 4.954 0 00-3.512 9.253 5 5 0 001.958.406 4.7 4.7 0 001.824-.361 4.967 4.967 0 002.792-6.416 4.876 4.876 0 00-1.666-2.162l5.471-12.63a7.123 7.123 0 001.553.383l-.067 5.4a4.761 4.761 0 00-1.216.383 4.951 4.951 0 00.315 9.141 5.133 5.133 0 001.734.315 5.013 5.013 0 002.049-.45 4.943 4.943 0 00-1.306-9.388l.068-5.291a8.062 8.062 0 001.8-.247l4.931 12.472a4.925 4.925 0 00-2.3 2.431 5 5 0 00-.068 3.782 4.889 4.889 0 002.634 2.724 5 5 0 001.958.405 5.119 5.119 0 001.824-.338 4.89 4.89 0 002.724-2.634 4.958 4.958 0 00-5.29-6.867l-4.95-12.513a10.89 10.89 0 001.508-.856l3.67 3.76a4.918 4.918 0 002.3 7.5 5.124 5.124 0 001.734.315 4.951 4.951 0 10-2.927-8.938l-3.58-3.669a8.889 8.889 0 001.283-1.734l12.09 4.93a4.967 4.967 0 004.75 6.394 5.273 5.273 0 001.914-.383 4.946 4.946 0 002.634-6.484 4.789 4.789 0 00-2.682-2.704zm-9.253-9.141a3.378 3.378 0 11-1.486 4.525 3.344 3.344 0 011.486-4.524zm4.57-7.587a3.373 3.373 0 111.756 4.435 3.335 3.335 0 01-1.8-1.869 3.276 3.276 0 01.045-2.565zM39.624 2.334a3.418 3.418 0 014.393 1.913 3.386 3.386 0 11-6.3 2.477 3.391 3.391 0 011.907-4.39zM19.002 8.052a3.392 3.392 0 01-1.757-4.458 3.375 3.375 0 013.107-2.026 3.414 3.414 0 011.328.27 3.383 3.383 0 01-2.679 6.214zM6.529 22.753a3.333 3.333 0 01-2.589.023 3.406 3.406 0 01-1.846-1.824 3.333 3.333 0 01-.023-2.589 3.409 3.409 0 011.824-1.846 3.315 3.315 0 011.306-.27 3.712 3.712 0 011.283.247 3.389 3.389 0 01.045 6.259zm6.8 10.289a3.382 3.382 0 01-4.728-4.1 3.379 3.379 0 011.688-1.959 3.24 3.24 0 011.508-.36 3.395 3.395 0 011.531 6.417zm-5.29 7.925a3.37 3.37 0 01-4.435 1.756 3.386 3.386 0 01.113-6.259 3.471 3.471 0 011.238-.247 3.53 3.53 0 011.351.27 3.438 3.438 0 011.732 4.479zm14.137 14.881a3.386 3.386 0 01-6.259-.114 3.4 3.4 0 011.891-4.39 3.438 3.438 0 011.238-.225 3.4 3.4 0 013.152 2.139 3.239 3.239 0 01-.022 2.59zM40.66 15.909a3.369 3.369 0 011.778-1.869 3.184 3.184 0 011.351-.293 3.239 3.239 0 011.216.225 3.369 3.369 0 011.869 1.779 3.438 3.438 0 01.067 2.589 3.367 3.367 0 01-1.779 1.869 3.436 3.436 0 01-2.589.068 3.348 3.348 0 01-1.913-4.368zm-13.171-3.265a3.332 3.332 0 01-.09-2.589 3.376 3.376 0 011.756-1.891 3.355 3.355 0 014.48 1.67 3.328 3.328 0 01.09 2.589 3.371 3.371 0 01-1.756 1.891 3.387 3.387 0 01-4.48-1.666zm-11.437 6.957a3.37 3.37 0 011.193-6.529 3.1 3.1 0 011.171.225 3.366 3.366 0 11-2.364 6.3zm3.647 24.292a3.378 3.378 0 01-6.3-2.431 3.369 3.369 0 011.779-1.869 3.18 3.18 0 011.351-.293 3.23 3.23 0 011.216.225 3.359 3.359 0 011.955 4.368zm4.052-11.571a7.073 7.073 0 113.76 3.895 7.017 7.017 0 01-3.759-3.896zm9.118 14.836a3.33 3.33 0 01.09 2.589 3.37 3.37 0 01-1.755 1.887 3.332 3.332 0 01-2.589.09 3.379 3.379 0 114.255-4.57zm8.082 4.75a3.373 3.373 0 11-2.679 6.191 3.386 3.386 0 01.112-6.258 3.466 3.466 0 011.238-.248 4.762 4.762 0 011.33.315zm.766-11.617a3.413 3.413 0 011.4-.315 3.206 3.206 0 011.193.225 3.377 3.377 0 11-4.255 4.57 3.33 3.33 0 01-.09-2.589 3.235 3.235 0 011.752-1.891zm14.319 3.152a3.37 3.37 0 11-2.612-6.209 3.314 3.314 0 011.306-.27 3.713 3.713 0 011.284.247 3.368 3.368 0 01.023 6.236zm0 0" fill="#fff"/></svg>