<?xml version="1.0" encoding="utf-8"?>
<!-- Generator: Adobe Illustrator 23.1.1, SVG Export Plug-In . SVG Version: 6.00 Build 0)  -->
<svg version="1.1" id="Layer_1" xmlns="http://www.w3.org/2000/svg" xmlns:xlink="http://www.w3.org/1999/xlink" x="0px" y="0px"
	 viewBox="0 0 60 60" style="enable-background:new 0 0 60 60;" xml:space="preserve">
<g id="logo_material_alternative_500_crop_only_icon_transparent_svg" transform="translate(5.817 4.934)">
	<path id="Path_1" d="M50.8,30.8c-1.2-0.5-2.6-0.5-3.8,0c-0.9,0.4-1.6,1-2.1,1.7l-12.1-5c0.2-0.6,0.3-1.2,0.4-1.8l5-0.1
		c0.1,0.4,0.2,0.8,0.4,1.2c0.8,1.7,2.6,2.7,4.4,2.7c0.8,0,1.5-0.2,2.2-0.5c2.5-1.2,3.5-4.2,2.2-6.6c-0.6-1.2-1.6-2.1-2.9-2.5
		c-2.6-0.9-5.4,0.5-6.3,3.1c-0.1,0.3-0.2,0.7-0.2,1l-4.9,0.1c0-0.6-0.1-1.1-0.3-1.7l12-4.7c0.5,1,1.4,1.7,2.4,2.2
		c2.5,1.1,5.4-0.1,6.5-2.6s-0.1-5.4-2.6-6.5c-2.5-1.1-5.4,0.1-6.5,2.6c-0.4,0.9-0.5,1.9-0.3,2.9l-12,4.7c-0.2-0.5-0.5-1-0.9-1.4
		l3.6-3.4c0.3,0.3,0.7,0.5,1.1,0.6c0.6,0.2,1.2,0.3,1.8,0.3c2.7,0,4.9-2.2,5-4.9c0-2.7-2.2-4.9-4.9-5s-4.9,2.2-5,4.9
		c0,0.7,0.1,1.4,0.4,2c0.1,0.3,0.3,0.6,0.5,0.9l-3.5,3.4c-0.6-0.5-1.2-1-1.9-1.3l5.1-11.8c0.4,0.1,0.9,0.2,1.4,0.2
		c0.6,0,1.2-0.1,1.8-0.3c1.2-0.5,2.2-1.4,2.7-2.6c0.5-1.2,0.5-2.6,0.1-3.8c-1.1-2.6-3.9-3.8-6.5-2.8c-2.5,1-3.8,3.9-2.8,6.4
		c0.4,0.9,1,1.7,1.8,2.3l-5.2,11.9c-0.5-0.2-1-0.3-1.6-0.3l0.1-5c0.4-0.1,0.8-0.2,1.2-0.4c1.2-0.5,2.1-1.5,2.6-2.8
		c0.5-1.2,0.4-2.6-0.1-3.8c-1.1-2.5-4.1-3.6-6.6-2.5c-1.2,0.5-2.1,1.5-2.6,2.8c-0.5,1.2-0.4,2.6,0.1,3.8c0.7,1.5,2.1,2.6,3.8,2.8
		l-0.1,4.9c-0.7,0-1.5,0.2-2.2,0.5L16.9,4.4c1-0.5,1.7-1.4,2.2-2.4c1.1-2.5,0-5.4-2.6-6.5S11.1-4.5,10-2C9.4-0.8,9.4,0.6,9.9,1.8
		C10.4,3,11.3,4,12.5,4.5c0.6,0.3,1.3,0.4,2,0.4c0.3,0,0.6,0,0.9-0.1l4.9,12.3c-0.4,0.2-0.9,0.5-1.2,0.8l-3.6-3.7
		c1.6-2.2,1.1-5.3-1.2-6.9c-1.4-1-3.3-1.2-4.9-0.5C6.8,8.1,5.7,11,6.9,13.5c0.6,1.2,1.6,2.2,2.8,2.6c0.6,0.2,1.1,0.3,1.7,0.3
		c1.1,0,2.1-0.3,2.9-1l3.6,3.7c-0.5,0.6-0.9,1.2-1.2,1.9L4.2,16c0.7-2.6-0.9-5.4-3.5-6.1c-1.1-0.3-2.2-0.2-3.2,0.2
		c-2.5,1.1-3.7,4-2.6,6.5c0.8,1.8,2.6,3,4.6,3c0.7,0,1.3-0.1,1.9-0.4c0.9-0.4,1.7-1,2.2-1.8l12.6,5.1c-0.1,0.5-0.2,1-0.3,1.6l-5,0.1
		c-0.1-0.5-0.2-0.9-0.5-1.4c-1.2-2.4-4.2-3.4-6.6-2.2c-1.2,0.6-2.1,1.6-2.5,2.9c-0.4,1.2-0.3,2.6,0.3,3.8c0.6,1.2,1.6,2.1,2.9,2.5
		C5,29.9,5.5,30,6,30c0.8,0,1.5-0.2,2.2-0.5c1.4-0.7,2.4-2.1,2.7-3.7l5-0.1c0.1,0.6,0.2,1.2,0.4,1.7l-12.8,5c-0.5-1-1.4-1.8-2.4-2.3
		c-1.2-0.5-2.6-0.5-3.8-0.1c-1.2,0.5-2.2,1.4-2.7,2.6c-0.5,1.2-0.5,2.6-0.1,3.8c0.5,1.2,1.4,2.2,2.6,2.7c2.5,1.1,5.4-0.1,6.5-2.6
		C4,35.8,4.2,34.8,4,33.9l12.9-5.1c0.2,0.4,0.4,0.8,0.7,1.1l-3.9,3.8c-2.2-1.6-5.3-1.1-6.9,1.1s-1.1,5.3,1.1,6.9
		C8.2,42,8.6,42.2,9,42.4c2.5,1,5.4-0.3,6.4-2.8c0.6-1.6,0.4-3.3-0.6-4.7l3.9-3.7c0.5,0.4,1,0.8,1.6,1.1l-5.4,12.6
		c-2.6-0.8-5.4,0.6-6.2,3.2c-0.8,2.4,0.4,5.1,2.7,6.1c0.6,0.3,1.3,0.4,2,0.4c0.6,0,1.2-0.1,1.8-0.4c2.5-1,3.8-3.9,2.8-6.4
		c-0.3-0.9-0.9-1.6-1.7-2.2L21.7,33c0.5,0.2,1,0.3,1.6,0.4l-0.1,5.4c-0.4,0.1-0.8,0.2-1.2,0.4c-2.5,1.1-3.6,4.1-2.5,6.6
		c0.5,1.2,1.5,2.1,2.8,2.6c0.6,0.2,1.1,0.3,1.7,0.3c0.7,0,1.4-0.2,2-0.5c2.5-1.1,3.6-4.1,2.5-6.5c-0.7-1.5-2.1-2.6-3.8-2.8l0.1-5.3
		c0.6,0,1.2-0.1,1.8-0.2l4.9,12.5c-1,0.5-1.8,1.4-2.3,2.4c-0.5,1.2-0.5,2.6-0.1,3.8c0.5,1.2,1.4,2.2,2.6,2.7c0.6,0.3,1.3,0.4,2,0.4
		c0.6,0,1.2-0.1,1.8-0.3c1.2-0.5,2.2-1.4,2.7-2.6c1.1-2.5-0.1-5.4-2.6-6.5c-0.9-0.4-1.8-0.5-2.7-0.4l-5-12.5c0.5-0.2,1-0.5,1.5-0.9
		l3.7,3.8c-1.6,2.2-1.1,5.3,1.1,6.9c0.4,0.3,0.8,0.5,1.2,0.6c0.6,0.2,1.1,0.3,1.7,0.3c2.7,0,5-2.2,5-4.9c0-2.7-2.2-5-4.9-5
		c-1.1,0-2.1,0.3-2.9,1l-3.6-3.7c0.5-0.5,0.9-1.1,1.3-1.7L44.2,34c-0.8,2.6,0.7,5.4,3.3,6.2c0.5,0.1,0.9,0.2,1.4,0.2
		c0.7,0,1.3-0.1,1.9-0.4c2.5-1.1,3.7-4,2.6-6.5c0,0,0,0,0,0C53,32.3,52,31.3,50.8,30.8z M41.5,21.7c1.7-0.8,3.7-0.2,4.5,1.5
		c0.8,1.7,0.2,3.7-1.5,4.5c-1.7,0.8-3.7,0.2-4.5-1.5c0,0,0,0,0,0C39.2,24.6,39.8,22.5,41.5,21.7C41.5,21.7,41.5,21.7,41.5,21.7
		L41.5,21.7z M46.1,14.1c0.7-1.7,2.7-2.5,4.4-1.8c1.7,0.7,2.5,2.7,1.8,4.4c-0.7,1.7-2.7,2.5-4.4,1.8c0,0,0,0,0,0
		c-0.8-0.4-1.5-1-1.8-1.9C45.7,15.8,45.7,14.9,46.1,14.1L46.1,14.1z M33.8-2.6c1.7-0.7,3.7,0.2,4.4,1.9C38.9,1,38.1,3,36.4,3.8
		C34.7,4.5,32.7,3.7,32,2c0-0.1,0-0.1-0.1-0.2C31.2,0.1,32.1-1.9,33.8-2.6z M13.2,3.1c-1.7-0.7-2.5-2.7-1.8-4.5c0.5-1.2,1.8-2,3.1-2
		c0.5,0,0.9,0.1,1.3,0.3c1.7,0.7,2.5,2.7,1.8,4.4S14.9,3.9,13.2,3.1L13.2,3.1z M0.7,17.8c-0.8,0.4-1.8,0.4-2.6,0
		c-0.8-0.3-1.5-1-1.8-1.8c-0.4-0.8-0.4-1.8,0-2.6c0.3-0.8,1-1.5,1.8-1.8c0.4-0.2,0.9-0.3,1.3-0.3c0.4,0,0.9,0.1,1.3,0.2
		c1.7,0.7,2.6,2.7,1.9,4.4C2.2,16.8,1.5,17.5,0.7,17.8z M7.5,28.1c-1.7,0.8-3.7,0.2-4.5-1.5c-0.4-0.8-0.5-1.7-0.2-2.6
		c0.3-0.9,0.9-1.6,1.7-2c0.5-0.2,1-0.4,1.5-0.4c1.9,0,3.4,1.5,3.4,3.4C9.4,26.4,8.6,27.5,7.5,28.1L7.5,28.1z M2.2,36
		c-0.7,1.7-2.7,2.5-4.4,1.8c0,0,0,0,0,0C-3.9,37-4.7,35.1-4,33.3c0.4-0.8,1-1.5,1.9-1.8c0.4-0.2,0.8-0.2,1.2-0.2
		c0.5,0,0.9,0.1,1.4,0.3C2.2,32.3,3,34.3,2.2,36L2.2,36z M16.4,50.9c-0.7,1.7-2.7,2.5-4.5,1.8c-0.8-0.4-1.5-1-1.8-1.9
		c-0.7-1.7,0.2-3.7,1.9-4.4c0.4-0.2,0.8-0.2,1.2-0.2c1.4,0,2.6,0.8,3.2,2.1C16.7,49.2,16.7,50.1,16.4,50.9z M34.8,11
		c0.3-0.8,1-1.5,1.8-1.9C37,8.9,37.5,8.8,38,8.8c0.4,0,0.8,0.1,1.2,0.2c0.8,0.3,1.5,1,1.9,1.8c0.4,0.8,0.4,1.8,0.1,2.6
		c-0.3,0.8-1,1.5-1.8,1.9c-0.8,0.4-1.8,0.4-2.6,0.1C35,14.7,34.2,12.7,34.8,11C34.8,11,34.8,11,34.8,11z M21.7,7.7
		c-0.4-0.8-0.4-1.7-0.1-2.6c0.3-0.8,0.9-1.5,1.8-1.9C25,2.4,27,3.2,27.8,4.9c0,0,0,0,0,0c0.4,0.8,0.4,1.7,0.1,2.6
		C27.6,8.3,27,9,26.2,9.4C24.5,10.2,22.5,9.4,21.7,7.7L21.7,7.7z M10.2,14.7c-1.7-0.6-2.6-2.6-2-4.3C8.7,9,10,8.1,11.4,8.1
		c0.4,0,0.8,0.1,1.2,0.2c1.8,0.6,2.7,2.5,2.1,4.3s-2.5,2.7-4.3,2.1C10.4,14.7,10.3,14.7,10.2,14.7L10.2,14.7z M13.9,39
		c-0.7,1.7-2.7,2.5-4.4,1.8c-1.6-0.7-2.5-2.5-1.9-4.2c0.3-0.8,1-1.5,1.8-1.9c0.4-0.2,0.9-0.3,1.4-0.3c0.4,0,0.8,0.1,1.2,0.2
		C13.7,35.2,14.5,37.2,13.9,39C13.9,38.9,13.9,38.9,13.9,39L13.9,39z M17.9,27.4c-1.4-3.6,0.4-7.7,4-9.2c3.6-1.4,7.7,0.4,9.2,4
		c1.4,3.6-0.4,7.7-4,9.2c-1.7,0.7-3.7,0.7-5.4-0.1C20,30.5,18.6,29.1,17.9,27.4L17.9,27.4z M27.1,42.2c0.4,0.8,0.4,1.7,0.1,2.6
		c-0.3,0.8-0.9,1.5-1.8,1.9c-0.8,0.4-1.7,0.4-2.6,0.1c-1.7-0.7-2.6-2.6-2-4.3c0.7-1.7,2.6-2.6,4.3-2C26,40.8,26.7,41.4,27.1,42.2
		L27.1,42.2z M35.1,47c1.7,0.7,2.5,2.7,1.8,4.4c-0.7,1.7-2.7,2.5-4.4,1.8c0,0,0,0,0,0c-1.7-0.7-2.5-2.7-1.8-4.5
		c0.4-0.8,1-1.5,1.9-1.8c0.4-0.2,0.8-0.2,1.2-0.2C34.3,46.7,34.7,46.8,35.1,47L35.1,47z M35.9,35.4c0.4-0.2,0.9-0.3,1.4-0.3
		c0.4,0,0.8,0.1,1.2,0.2c1.7,0.7,2.6,2.6,2,4.3c-0.7,1.7-2.6,2.6-4.3,2c-0.8-0.3-1.5-0.9-1.9-1.8c-0.4-0.8-0.4-1.7-0.1-2.6
		C34.4,36.4,35.1,35.7,35.9,35.4z M50.2,38.5c-1.7,0.8-3.7,0-4.5-1.6c-0.8-1.7,0-3.7,1.6-4.5c0.1,0,0.1-0.1,0.2-0.1
		c0.4-0.2,0.9-0.3,1.3-0.3c0.4,0,0.9,0.1,1.3,0.2c1.7,0.7,2.6,2.7,1.9,4.4C51.7,37.5,51.1,38.2,50.2,38.5L50.2,38.5z"/>
</g>
</svg>
