<?xml version="1.0" encoding="utf-8"?>
<!-- Generator: Adobe Illustrator 23.1.1, SVG Export Plug-In . SVG Version: 6.00 Build 0)  -->
<svg version="1.1" id="Layer_1" xmlns="http://www.w3.org/2000/svg" xmlns:xlink="http://www.w3.org/1999/xlink" x="0px" y="0px"
	 viewBox="0 0 31 31" style="enable-background:new 0 0 31 31;" xml:space="preserve">
<g>
	<g id="icon_dashboard">
		<path id="Union_8" fill="#FFB100" d="M25.2,31c-1,0.1-1.9-0.7-1.9-1.7c0-0.1,0-0.1,0-0.2V11.6c-0.1-1,0.7-1.9,1.7-1.9c0.1,0,0.1,0,0.2,0h3.9
			c1-0.1,1.9,0.7,1.9,1.7c0,0.1,0,0.1,0,0.2V29c0.1,1-0.7,1.9-1.7,1.9c-0.1,0-0.1,0-0.2,0h-3.9V31z M13.6,31c-1,0.1-1.9-0.7-1.9-1.7
			c0-0.1,0-0.1,0-0.2V1.9c-0.1-1,0.7-1.9,1.7-1.9c0.1,0,0.1,0,0.2,0h3.9c1-0.1,1.9,0.7,1.9,1.7c0,0.1,0,0.1,0,0.2V29
			c0.1,1-0.7,1.9-1.7,1.9c-0.1,0-0.1,0-0.2,0h-3.9V31z M1.9,31c-1,0.1-1.9-0.7-1.9-1.7c0-0.1,0-0.1,0-0.2v-7.7
			c-0.1-1,0.7-1.9,1.7-1.9c0.1,0,0.1,0,0.2,0h3.9c1-0.1,1.9,0.7,1.9,1.7c0,0.1,0,0.1,0,0.2v7.7C7.8,30.1,7,30.9,6,31
			c-0.1,0-0.1,0-0.2,0H1.9z"/>
	</g>
</g>
</svg>
