<?xml version="1.0" encoding="utf-8"?>
<!-- Generator: Adobe Illustrator 23.1.1, SVG Export Plug-In . SVG Version: 6.00 Build 0)  -->
<svg version="1.1" id="Layer_1" xmlns="http://www.w3.org/2000/svg" xmlns:xlink="http://www.w3.org/1999/xlink" x="0px" y="0px"
	 viewBox="0 0 35 35" style="enable-background:new 0 0 35 35;" xml:space="preserve">
<g>
	<g id="icon_chat-room">
		<path id="Union_11" d="M21.9,28.4h-11l4-4.4h13.5c1.2,0,2.2-1,2.2-2.2l0,0v-13h2.2c1.2,0,2.2,1,2.2,2.2l0,0v15.3
			c0,1.2-1,2.2-2.2,2.2h-4.4V35L21.9,28.4z M6.6,19.7H2.2c-1.2,0-2.2-1-2.2-2.2V2.2C0,1,1,0,2.2,0h21.9c1.2,0,2.2,1,2.2,2.2v15.3
			c0,1.2-1,2.2-2.2,2.2l0,0h-11l-6.6,6.6L6.6,19.7L6.6,19.7z"/>
	</g>
</g>
</svg>
