<?xml version="1.0" encoding="utf-8"?>
<!-- Generator: Adobe Illustrator 23.1.1, SVG Export Plug-In . SVG Version: 6.00 Build 0)  -->
<svg version="1.1" id="Layer_1" xmlns="http://www.w3.org/2000/svg" xmlns:xlink="http://www.w3.org/1999/xlink" x="0px" y="0px"
	 viewBox="0 0 121 121" style="enable-background:new 0 0 121 121;" xml:space="preserve">
<path d="M60.5,0C27.1,0,0,27.1,0,60.5C0,93.9,27.1,121,60.5,121c33.4,0,60.5-27.1,60.5-60.5C121,27.1,93.9,0,60.5,0z M48.9,16.5
	h22.3v7.4H48.9V16.5z M86.1,81.9c-11.5,14.4-32.5,16.7-46.9,5.2S22.5,54.6,34,40.2C45.5,25.8,66.5,23.5,80.9,35l5.3-5.3
	c1.9,1.6,3.6,3.3,5.2,5.2l-5.3,5.3C95.9,52.4,95.9,69.7,86.1,81.9z"/>
<path d="M60.1,35.1c-14.3,0-26,11.6-26,26c0,14.3,11.6,26,26,26c0,0,0,0,0,0C74.4,87,86,75.4,86,61C86,46.7,74.4,35.1,60.1,35.1z
	 M63.8,64.8h-7.4V42.5h7.4V64.8z"/>
</svg>
