<?xml version="1.0" encoding="utf-8"?>
<!-- Generator: Adobe Illustrator 23.1.1, SVG Export Plug-In . SVG Version: 6.00 Build 0)  -->
<svg version="1.1" id="Layer_1" xmlns="http://www.w3.org/2000/svg" xmlns:xlink="http://www.w3.org/1999/xlink" x="0px" y="0px"
	 viewBox="0 0 95.4 81.8" style="enable-background:new 0 0 95.4 81.8;" xml:space="preserve">
<path id="ic_restore_24px" d="M54.5,0C31.9,0,13.6,18.3,13.6,40.9H0l17.7,17.7l0.3,0.6l18.4-18.3H22.7c-0.1-17.6,14.2-32,31.8-32.1
	c17.6-0.1,32,14.2,32.1,31.8s-14.2,32-31.8,32.1c-8.5,0-16.7-3.3-22.7-9.4l-6.5,6.5c16,16,41.8,16,57.8,0s16-41.8,0-57.8
	C75.8,4.3,65.4,0,54.5,0z M50,22.7v22.7L69.4,57l3.3-5.5L56.8,42V22.7H50z"/>
</svg>
