<?xml version="1.0" encoding="utf-8"?>
<!-- Generator: Adobe Illustrator 23.1.1, SVG Export Plug-In . SVG Version: 6.00 Build 0)  -->
<svg version="1.1" id="Layer_1" xmlns="http://www.w3.org/2000/svg" xmlns:xlink="http://www.w3.org/1999/xlink" x="0px" y="0px"
	 viewBox="0 0 121 121" style="enable-background:new 0 0 121 121;" xml:space="preserve">
<path d="M60.5,0C27.1,0,0,27.1,0,60.5C0,93.9,27.1,121,60.5,121S121,93.9,121,60.5C121,27.1,93.9,0,60.5,0z M61.2,28.4l0.4,0.4
	l36.7,18.3L61.1,65.6l-0.6-0.3L23.9,46.9L61.2,28.4z M36.1,59.1l25,13l25-13h13.9L61.1,78.6L22,59.1H36.1z M61.2,91.5h-0.6L22,72.2
	h14.1l25,13l25-13h13.9L61.2,91.5z" fill="#A9BFD5"/>
<polygon points="84.9,46.6 60.9,35.1 36.9,46.6 60.9,59.1 " fill="#A9BFD5"/>
</svg>
