<?xml version="1.0" encoding="utf-8"?>
<!-- Generator: Adobe Illustrator 23.1.1, SVG Export Plug-In . SVG Version: 6.00 Build 0)  -->
<svg version="1.1" id="Layer_1" xmlns="http://www.w3.org/2000/svg" xmlns:xlink="http://www.w3.org/1999/xlink" x="0px" y="0px"
	 viewBox="0 0 37.9 27.9" style="enable-background:new 0 0 37.9 27.9;" xml:space="preserve">
<path id="ic_view_comfy_24px" fill="#FFFFFF" d="M0,8h8V0H0V8z M0,17.9h8v-8H0V17.9z M10,17.9h8v-8h-8V17.9z M19.9,17.9h8v-8h-8V17.9z M10,8h8V0h-8
	V8z M19.9,0v8h8V0H19.9z M29.9,17.9h8v-8h-8L29.9,17.9z M0,27.9h8v-8H0V27.9z M10,27.9h8v-8h-8V27.9z M19.9,27.9h8v-8h-8V27.9z
	 M29.9,27.9h8v-8h-8L29.9,27.9z M29.9,0v8h8V0H29.9z"/>
</svg>
