<?xml version="1.0" encoding="utf-8"?>
<!-- Generator: Adobe Illustrator 23.1.1, SVG Export Plug-In . SVG Version: 6.00 Build 0)  -->
<svg version="1.1" id="Layer_1" xmlns="http://www.w3.org/2000/svg" xmlns:xlink="http://www.w3.org/1999/xlink" x="0px" y="0px"
	 viewBox="0 0 121 121" style="enable-background:new 0 0 121 121;" xml:space="preserve">
<path d="M60.5,0C27.1,0,0,27.1,0,60.5C0,93.9,27.1,121,60.5,121c33.4,0,60.5-27.1,60.5-60.5C121,27.1,93.9,0,60.5,0z M23.5,51.6
	C35.7,39.4,53,34,70,37l-4,9.1C52.8,44.4,39.7,49,30.3,58.3L23.5,51.6z M37.1,65.1L37.1,65.1c6.5-6.5,15.5-10.1,24.7-9.7l-4.3,9.7
	c-5.2,0.7-9.9,3.1-13.6,6.8L37.1,65.1z M67.4,83.4c-0.7,3.1-3.4,5.4-6.7,5.4c-3.8,0-6.8-3.1-6.8-6.8c0-1.1,0.3-2.3,0.9-3.2
	l17.5-39.4l0.2-0.5c0.3-0.5,0.8-0.8,1.4-0.8c0,0,0,0,0,0c0.9,0,1.7,0.8,1.7,1.7l-8.3,43.6L67.4,83.4z M77.7,71.9
	c-1.2-1.2-2.6-2.3-4.1-3.3l1.9-9.9c3.3,1.6,6.4,3.8,9,6.4L77.7,71.9z M91.2,58.3c-4-4-8.7-7.2-13.9-9.3l1.8-9.5
	c7.1,2.6,13.6,6.7,18.9,12.1L91.2,58.3z"/>
</svg>
