<?xml version="1.0" encoding="utf-8"?>
<!-- Generator: Adobe Illustrator 23.1.1, SVG Export Plug-In . SVG Version: 6.00 Build 0)  -->
<svg version="1.1" id="Layer_1" xmlns="http://www.w3.org/2000/svg" xmlns:xlink="http://www.w3.org/1999/xlink" x="0px" y="0px"
	 viewBox="0 0 121 121" style="enable-background:new 0 0 121 121;" xml:space="preserve">
<path d="M60.5,0C27.1,0,0,27.1,0,60.5C0,93.9,27.1,121,60.5,121c33.4,0,60.5-27.1,60.5-60.5C121,27.1,93.9,0,60.5,0z M87.4,86.3
	c-14.1,14.1-36.9,14.1-51,0l5.7-5.7c5.3,5.3,12.5,8.3,20.1,8.3c15.6-0.1,28.1-12.8,28.1-28.3S77.5,32.4,61.9,32.5
	S33.8,45.2,33.8,60.8h12L29.7,77l-0.3-0.6L13.8,60.8h12c0-19.9,16.2-36.1,36.1-36.1c9.6,0,18.8,3.8,25.5,10.6
	C101.5,49.4,101.5,72.2,87.4,86.3z M78,70.2L75.1,75L57.9,64.8v-20h6v17L78,70.2z"/>
</svg>
