<?xml version="1.0" encoding="utf-8"?>
<!-- Generator: Adobe Illustrator 23.1.1, SVG Export Plug-In . SVG Version: 6.00 Build 0)  -->
<svg version="1.1" id="Layer_1" xmlns="http://www.w3.org/2000/svg" xmlns:xlink="http://www.w3.org/1999/xlink" x="0px" y="0px"
	 viewBox="0 0 32.7 40" style="enable-background:new 0 0 32.7 40;" xml:space="preserve">
<path id="ic_content_paste_24px" fill="#FFB100" d="M29.1,3.6h-7.6c-1-2.8-4.1-4.3-6.9-3.3c-1.6,0.5-2.8,1.8-3.3,3.3H3.6C1.6,3.6,0,5.3,0,7.3v29.1
	c0,2,1.6,3.6,3.6,3.6h25.5c2,0,3.6-1.6,3.6-3.6V7.3C32.7,5.3,31.1,3.6,29.1,3.6z M16.4,3.6c1,0,1.8,0.8,1.8,1.8s-0.8,1.8-1.8,1.8
	s-1.8-0.8-1.8-1.8C14.5,4.5,15.4,3.6,16.4,3.6z M29.1,36.4H3.6V7.3h3.6v5.5h18.2V7.3h3.6V36.4z"/>
</svg>
